<?xml version="1.0" encoding="UTF-8"?>
<svg id="Layer_1" data-name="Layer 1" xmlns="http://www.w3.org/2000/svg" viewBox="0 0 941.84 266.29">
  <path d="M761.85,239.65c-8.47,7.03-17.65,10.31-26.92,13.43-19.11,6.45-43.96-1.49-56.17-17.39-12.53-16.33-18.84-34.47-17.91-55.09.78-17.52,6.87-33,18.1-46.4,8.04-9.59,17.5-17.66,30.14-19.85,16.59-2.87,32.66-.69,47.39,8.2,1.1.67,2.55,1.86,3.43,1.57,1.77-.58.92-2.59.92-3.96.04-22.98.04-45.96-.05-68.94-.01-3.39-.12-5.17,4.66-4.65,14.33,1.55,28.75,2.29,43.14,3.22,2.24.15,3.48.76,3.32,3.18-.07.99,0,2,0,3,0,63.94-.06,127.88.11,191.82.01,4.92-1.46,6.12-6.17,6-12.99-.31-25.99-.25-38.98-.03-3.9.07-5.51-1-5.06-5.02.29-2.62.06-5.31.06-9.09ZM760.89,183.3c1.68-14.34-14.5-26.78-26.4-26.83-15.32-.06-27.56,12.9-27.49,27,.07,14.65,13.33,27.71,26.3,27.38,15.09-.38,27.59-12.49,27.6-27.56Z" style="fill: #c9d1ea; stroke-width: 0px;"/>
  <path d="M215.11,151.76c-.05-5.32-.1-10.65-.15-15.97-.33-31.25-.6-62.51-1.1-93.76-.06-3.68,1.19-5.16,4.56-6.27,13.57-4.44,27.03-9.2,40.54-13.79,5.76-1.96,5.97-1.77,6,4.04.11,27.43-1.42,54.84-1.24,82.27.04,5.9-.75,11.9-.69,17.87.01,1.37-.88,3.34.86,4.02,1.36.53,2.15-1.22,3.13-2.05,17.09-14.46,36.5-19.44,57.99-12.71,17.86,5.6,26.87,19.73,31.78,36.79,2.34,8.13,3.17,16.56,3.15,25.06-.05,23.46,0,46.93.01,70.39-1.52,1.17-.7,4.16-4.06,4.1-12.48-.24-24.97-.09-37.45-.11-2.7,0-3.87-1.54-3.86-4.11.12-20.79.3-41.57.31-62.36,0-4.11-.5-8.26-1.18-12.33-.25-1.51-.18-3.93-2.83-4.06,0,0,0-.03,0-.03-.35-.33-.7-.67-1.04-1-.36-.64-.71-1.28-1.07-1.92,1.96-3.27-1.02-1.68-2.01-2.04-5.94-4.07-12.52-4.92-19.66-5.34-11.82-.7-24.05,12.65-23.38,23.54.91,14.73.22,29.55.32,44.33.02,3.45.46,6.9.72,10.35-.77.14-1.54.31-1.65,1.28-.14,1.23.7,1.55,1.68,1.7,0,2.67,0,5.34.01,8.01-3.04.75-1.43,3.24-1.86,4.97-2.67,0-5.33-.01-8-.02-.52-2.77-2.74-1.92-4.4-1.93-8.32-.07-16.63-.01-24.95-.04-6.15-.02-6.63-.5-6.64-6.42-.01-13.38-.25-26.77.06-40.15.38-16.51-3.54-32.81-2.08-49.35.06-.64.02-1.41-.29-1.92-.29-.49-1-.73-1.53-1.07Z" style="fill: #c9d1ea; stroke-width: 0px;"/>
  <path d="M466.68,126.4q.53-9.66,9.57-9.66c9.66,0,19.32.09,28.98-.06,3.23-.05,4.72.62,4.78,4.34.27,18.42,1.62,36.81,2.13,55.23.44,15.75,1.1,31.52,2.11,47.23.56,8.76-.39,17.62,1.45,26.3.47,2.2-.71,2.98-2.79,2.98-13.66-.02-27.32-.03-40.97,0-4.29,0-2.69-3.22-3.1-5.39-.32-1.71,1.04-4.1-.9-5-1.46-.67-2.87,1.27-4.2,2.16-19.72,13.15-49.76,13.11-69.55-3.01-17.18-13.98-25.59-31.9-26.41-53.94-.58-15.81,2.61-30.39,11.53-43.5,11.16-16.39,26.56-25.73,46.36-28.45,15.16-2.09,28.5,1.41,41.03,10.77ZM441.25,157.73c-15.03-.02-28.28,12.31-28.32,26.37-.04,14.07,12.43,27.51,25.61,27.6,14.2.1,25.89-13.49,26.5-29.44.55-14.38-12.07-25.18-23.8-24.53Z" style="fill: #c9d1ea; stroke-width: 0px;"/>
  <path d="M522.87,184.31c0-20.65,0-41.3,0-61.95,0-6.52.01-6.54,6.73-6.56,11.5-.03,23,.09,34.49-.14,3.67-.07,4.95.94,4.88,4.74-.15,7.89-.17,7.42,7.24,3.88,16.87-8.06,34.34-13.55,53.37-8.74,13.93,3.52,25.65,16.34,27.18,30.56,2.09,19.38,1.22,38.8.35,58.24-.61,13.63-.22,27.31-.26,40.96-.02,7.09-.06,6.69-7.01,7.55-11.63,1.44-23.29.2-34.9.86-5.02.29-6.46-1.68-6.05-6.34,1.66-18.92.69-37.9.95-56.85.09-6.03-1.11-11.89-2.5-17.68-1.89-7.87-8.25-14.58-17.76-14.36-10.02.24-17.06,5.92-19.56,14.61-.78,2.7-1.16,5.48-1.15,8.35.08,21.82-.05,43.64.15,65.45.04,4.38-.85,6.14-5.7,5.99-11.82-.37-23.66-.28-35.48-.04-3.97.08-5.1-1.12-5.07-5.07.18-21.15.09-42.3.09-63.45Z" style="fill: #c9d1ea; stroke-width: 0px;"/>
  <path d="M869.87,199.9c-20.6-.39-37.03-8.29-46.92-27.08-6.77-12.86-3.61-30.03,7.37-40.94,15.96-15.85,35.28-21.37,57.49-18.41,16.49,2.2,30.67,9.11,43.71,19.04,2.26,1.72,2.63,3.12,1.23,5.35-4.86,7.72-9.79,15.39-14.48,23.2-1.53,2.55-2.62,2.33-5.04,1.01-12.24-6.67-24.94-11.75-39.38-10.42-3.78.35-7.22,1.38-10.32,3.34-3.35,2.12-3.42,5.38-.19,7.71,3.81,2.75,8.38,3.04,12.86,2.99,12.55-.12,24.79,1.16,36.54,6.09,14.48,6.08,23.39,21.98,21.43,36.77-2.91,21.93-16.73,34.31-35.73,41.98-20.77,8.39-41.5,6.56-62-1.9-6.73-2.78-12.55-6.77-18.16-11.16-4.54-3.55-4.41-4.9-.6-9.18,6.61-7.42,13.15-14.91,19.65-22.43,1.66-1.93,3.11-2.75,5.4-.81,6.7,5.66,14.68,8.17,23.25,9.24,6.97.87,13.52-.09,19.7-3.52,2.52-1.4,3.55-3.42,3.11-6.19-.44-2.78-2.44-3.41-4.95-4.01-4.63-1.1-9.26-.72-13.99-.67Z" style="fill: #c9d1ea; stroke-width: 0px;"/>
  <path d="M109.68,42.71c-3.02-2-6.11-4.05-9.74-6.76-7.02-5.25-8.69-12.18-7.88-20.25.25-2.53,1.56-2.89,3.82-1.89,22.32,9.9,45.48,17.61,68.3,26.24,6.91,2.61,10.55,8.25,13.29,14.72,6.46,15.27,12.86,30.58,19.58,45.74,8.2,18.49,5.54,36.25-3.07,53.66-8.92,18.03-17.51,36.18-21.99,55.92-.95,4.2-1.54,8.49-1.87,12.78-.39,5.18-1.38,5.8-5.84,3.51-4.58-2.36-7.97-6.05-10.9-9.98-10.07-13.52-18.69-27.94-22.71-44.5-2.93-12.06-2.13-24.4-1-36.65,1.26-13.62,2.01-27.11-5.21-39.68-2.95-5.13-4-10.84-3.52-16.83.6-7.55,5.09-10.06,11.49-5.91,11.08,7.19,16.15,18.83,20.1,31.04,2.92,9.04,4.22,18.48,4.53,27.98.08,2.27.65,4.53,1.1,7.52,5.46-23.06,3.43-46.09-5.08-65.59-3.87-8.86-11.86-12.84-17.93-17.27l-1.98-1.51c-2.91-1.93-2.27-1.53-2.62-1.81l-4.03-1.61c-.21-.12-.52-.23-.7-.34-3.5-2.37-4.64-3.4-10.36-5.79l-.17-.08c-.54-.44-.54-.31-1.17-.68l-4.42-1.97Z" style="fill: #c9d1ea; stroke-width: 0px;"/>
  <path d="M39.02,122.85c-3.22,19.64,8.4,33.27,19.53,46.79,7.03,8.55,15.98,15.22,25.44,21.07.36.33.54,1.27,1.25.35-.43-.11-.85-.21-1.28-.32.36-4.56-3.89-6.4-6.3-8.29-6.56-5.12-9.91-12.33-13.99-18.95-6.43-10.42-10.72-21.77-9.75-34.45.14-1.84.44-3.59.91-5.37,1.2-4.52,4.11-5.16,8-3.84,6.81,2.32,10.58,7.97,12.37,14.08,4.75,16.14,16.68,26.06,29.22,35.4,18.37,13.68,29.89,31.63,35.48,53.66,2.33,9.18,4.67,18.34,4.08,27.93-.1,1.64-.22,3.33-.67,4.9-1.32,4.63-2.54,4.97-5.96,1.76-8.88-8.34-19.87-13.05-30.68-18.16-13.87-6.57-28.85-9.88-43.15-15.21-17.27-6.44-28.39-18.32-35.23-34.97-5.99-14.59-12.04-29.15-18.43-43.57-3.72-8.4-3.05-16.1.75-24.35,9.16-19.91,17.74-40.08,25.52-60.58,1.73-4.56,2.8-4.96,6.48-1.68,6.02,5.37,8.9,11.7,6.62,20.01-2.14,7.8-2.5,16.02-5.22,23.71-5,3.51-5.53,5.98-1.94,9.01.04.26.05.53.03.8-.99,3.44-2.82,6.62-3.08,10.27Z" style="fill: #c9d1ea; stroke-width: 0px;"/>
  <path d="M459.62,89.79c-7.99,0-15.99-.11-23.98.06-3.24.07-4.89-.59-4.73-4.34.74-17.96-1-35.88-1.21-53.83-.08-6.77-.63-13.58-.84-20.38-.1-3.06.58-4.52,4.08-4.48,16.15.15,32.31.12,48.47.03,3.16-.02,4.57,1.09,4.51,4.35-.07,3.81-.11,7.6.82,11.4.85,3.46-.1,5.51-4.52,5.34-8.65-.35-17.32-.01-25.98-.15-3.4-.05-5.49.15-5.49,4.66,0,4.75,2.55,4.48,5.71,4.44,6.99-.08,13.99-.02,20.99-.02,2.57,0,3.91.16,3.95,3.84.05,4.58-.17,9.35.75,13.85.81,3.94-.95,4.24-3.87,4.23-7-.04-14,.23-20.98-.09-4.18-.19-4.47,1.82-4.49,5.12-.03,3.43.57,5.16,4.61,5.03,8.82-.29,17.65,0,26.48-.13,2.96-.05,4.23.83,4.08,3.97-.21,4.49-.17,8.99,0,13.48.11,2.92-1.16,3.71-3.86,3.67-8.16-.11-16.32-.04-24.48-.04Z" style="fill: #cad1e9; stroke-width: 0px;"/>
  <path d="M331.39,6.69c11.98.75,21.42,4.35,29.72,10.98,1.57,1.26,1.8,2.37.45,4.16-2.89,3.83-5.42,7.92-8.2,11.83-1.65,2.33-3.03,3.73-6.27,1.13-4.78-3.83-10.36-6.58-16.94-5.99-1.52.14-3.02.24-4.29,1.09-1.63,1.08-3.77,2.05-3.55,4.38.23,2.45,2.57,2.97,4.46,3.31,3.58.65,7.15,1.28,10.85,1.27,11.72-.02,22.34,6.83,24.44,15.95,3.33,14.5-1.5,22.75-12.75,30.14-17.03,11.18-36.21,5.04-49.66-6.05-1.66-1.37-1.62-2.54-.13-4.12,3.99-4.23,8.47-7.98,11.97-12.68,1.64-2.2,2.85-.16,4,.87,4.67,4.18,9.98,6.43,16.38,5.9,1.72-.14,3.29-.5,4.71-1.41,1.46-.93,2.59-2.15,2.34-4.07-.23-1.8-1.64-2.22-3.09-2.79-2.59-1.03-5.25-.68-7.89-.77-17.26-.58-31.86-17.78-25.33-34.33,3.8-9.61,11.12-15.06,20.82-17.45,3-.74,6.11-1.73,7.97-1.34Z" style="fill: #cad1e9; stroke-width: 0px;"/>
  <path d="M525.56,6.87c17.42.06,32.11,10.48,36.58,24.16,1,3.07.77,4.69-2.74,5.14-1.45.19-2.84.92-4.25,1.42-5.87,2.07-10.82,4.02-15.72-3.27-4.69-6.99-14.03-7.37-22.18-3.21-6.57,3.36-10.51,11.66-9.23,19.44,2.07,12.54,8.83,18.67,20.2,18.26,6.61-.23,11.3-3.88,14.57-9.13,1.64-2.64,3.04-2.98,5.56-1.87,2.27,1.01,4.65,1.79,6.97,2.68,7.63,2.94,7.75,3.01,4.15,10.05-9.16,17.91-35.36,27.73-55.74,12.97-21.34-15.46-23.46-47.48-4.51-65.43,7.95-7.54,17.6-11.02,26.33-11.21Z" style="fill: #cad1e9; stroke-width: 0px;"/>
  <path d="M629.73,71.8c-.5,0-1,0-1.5,0q-12.24,0-16.41,11.7c-2.11,5.93-2.09,5.88-8,3.27-3.65-1.61-7.29-3.29-11.07-4.51-3.96-1.28-5.07-2.67-2.8-6.88,5.11-9.48,9.52-19.33,14.28-29,5.51-11.19,11.18-22.29,16.57-33.54,1.41-2.95,3.09-4.33,6.47-4.11,4.48.28,9,.21,13.49.02,2.75-.11,4.22.76,5.12,3.48,7.65,23.35,15.41,46.66,23.2,69.96.57,1.71.27,2.41-1.43,2.84-5.79,1.44-11.55,2.98-17.33,4.44-2.36.6-2.85-1.26-3.27-2.83-.9-3.36-1.77-6.75-2.38-10.17-.62-3.47-2.11-5.2-5.95-4.73-2.95.37-5.99.07-8.99.07ZM632.31,31.21c-2.29,6.41-4.06,11.37-5.84,16.32-.47,1.3-1.03,2.89.97,3.06,2.96.26,5.96.16,8.94,0,1.27-.07,1.38-1.22,1.06-2.29-1.55-5.19-3.11-10.38-5.13-17.1Z" style="fill: #cad1e9; stroke-width: 0px;"/>
  <path d="M377.2,89.79c-10.27,0-9.91-.02-10.4-10.13-.98-20.07-1.26-40.15-1.99-60.22-.16-4.38,1.59-6.12,5.31-7.59,11.56-4.58,23.13-7.09,35.3-2.32,18.03,7.08,24.39,19.07,21.06,36.73-2.25,11.94-14.3,21.91-27.91,22.53-10.64.48-10.65.3-10.61,10.83q.04,10.18-10.75,10.17ZM386.94,37.59s.03,0,.04,0c0,2.16.21,4.35-.04,6.48-.6,5.04,2.28,5.98,6.35,5.72,5.34-.35,11.35-4.8,12.5-9.27,1.17-4.54-1.92-11.25-6.83-13.87-3.09-1.65-6.53-2.35-10-.63-3.31,1.64-1.64,4.66-1.98,7.1-.2,1.47-.04,2.99-.04,4.48Z" style="fill: #cad1e9; stroke-width: 0px;"/>
  <path d="M671.87,48.83c0-12.15.11-24.3-.06-36.44-.05-3.44.92-4.8,4.49-4.56,4.14.27,8.33.27,12.48,0,4.06-.26,5.12,1.48,5.09,5.28-.14,16.81.07,33.62-.15,50.42-.05,4.16,1.15,5.51,5.32,5.31,6.64-.32,13.32,0,19.97-.12,2.75-.05,3.93.83,3.83,3.71-.16,4.49-.2,8.99,0,13.48.14,3.14-1.13,3.97-4.09,3.94-14.15-.11-28.3-.16-42.45.02-3.56.04-4.54-1.17-4.5-4.59.17-12.15.06-24.3.07-36.44Z" style="fill: #cad1e9; stroke-width: 0px;"/>
  <path d="M582.88,8.83c3.01-.45,4.07.76,4.05,3.86-.13,19.62.13,39.24-.27,58.85-.1,4.95.43,9.85.21,14.79-.11,2.54-.92,3.57-3.53,3.5-5.49-.14-10.98-.07-16.46-.09,0-24.87,0-49.74,0-74.62,0-2.15-.22-4.33,1-6.28,4.66,0,9.33,0,13.99,0,.33.69.67.68,1,0Z" style="fill: #c9d1ea; stroke-width: 0px;"/>
  <path d="M39.02,122.85c.26-3.65,2.09-6.83,3.08-10.27,2.92-.44,2.38-3.29,2.52-4.76,1.46-15.47,10.08-27.77,17.43-40.67,2.24-3.92,3.62-3.21,5.63.09,6.94,11.39,6.69,22.67-.53,33.71-6.29,9.62-13.67,18-25.95,20-.81.13-1.46,1.24-2.19,1.9Z" style="fill: #cad1e9; stroke-width: 0px;"/>
  <path d="M133,56.83c3.68,3.18,3.63,4.72-.92,6.3-14.07,4.89-27.92,3.96-40.61-3.87-6.56-4.05-9.59-11.27-11.27-18.71-.63-2.82.66-3.79,3.78-2.79,8.81,2.82,17.85,4.74,27.01,6.07,0,0,0,0,0,0,0,0,.3.07.27.05.63.17,1.09.34,1.93.77.75.38,1.21.69,1.68,1.07,0,0,.14.11.14.11,4.35,4.91,9.99,7.67,15.97,9.98h0c.68.34,1.35.68,2.03,1.02Z" style="fill: #cad1e9; stroke-width: 0px;"/>
  <path d="M215.11,151.76c.53.35,1.24.58,1.53,1.07.31.52.34,1.28.29,1.92-1.45,16.54,2.46,32.84,2.08,49.35-.31,13.38-.07,26.77-.06,40.15,0,5.92.49,6.4,6.64,6.42,8.32.03,16.63-.03,24.95.04,1.65.01,3.87-.84,4.4,1.93-11.31,0-22.62-.14-33.92.05-4.02.07-5.13-1.5-5.1-5.3.13-16.79.63-33.61-.18-50.36-.73-15.11-.6-30.18-.63-45.28Z" style="fill: #cad1e9; stroke-width: 0px;"/>
  <path d="M310.87,168.81c2.65.13,2.58,2.55,2.83,4.06.68,4.06,1.18,8.21,1.18,12.33,0,20.79-.19,41.57-.31,62.36-.01,2.58,1.16,4.11,3.86,4.11,12.49.02,24.97-.13,37.45.11,3.36.06,2.54-2.93,4.06-4.1.93,4.89-1.21,6.18-5.96,6.05-12.14-.32-24.29-.25-36.43-.03-3.83.07-4.77-1.24-4.74-4.88.16-17.96.09-35.92.07-53.88,0-8.76.6-17.58-2.02-26.14Z" style="fill: #cad1e9; stroke-width: 0px;"/>
  <path d="M567.88,8.84c-1.22,1.95-1,4.13-1,6.28,0,24.87,0,49.74,0,74.62-2.69-1.18-2.3-3.73-1.82-5.61,1.7-6.71.47-13.48.64-20.2.44-16.75.14-33.51.24-50.27.01-1.73-1.17-4.22,1.94-4.82Z" style="fill: #cad1e9; stroke-width: 0px;"/>
  <path d="M42.08,111.78c-3.59-3.03-3.05-5.49,1.94-9.01-.65,3-1.3,6.01-1.94,9.01Z" style="fill: #cad1e9; stroke-width: 0px;"/>
  <path d="M262.94,252.66c.43-1.73-1.18-4.22,1.86-4.97-.3,1.78,1.4,4.3-1.86,4.97Z" style="fill: #cad1e9; stroke-width: 0px;"/>
  <path d="M306.76,163.82c.99.36,3.97-1.23,2.01,2.04-1.21-.15-1.82-.89-2.01-2.04Z" style="fill: #cad1e9; stroke-width: 0px;"/>
  <path d="M264.79,239.68c-.98-.15-1.82-.47-1.68-1.7.11-.97.88-1.13,1.65-1.28,0,.99.02,1.99.03,2.98Z" style="fill: #cad1e9; stroke-width: 0px;"/>
  <path d="M582.88,8.83c-.33.68-.67.69-1,0,.33,0,.67,0,1,0Z" style="fill: #cad1e9; stroke-width: 0px;"/>
  <path d="M309.84,167.78c.35.33.7.67,1.04,1-.35-.33-.7-.67-1.04-1Z" style="fill: #cad1e9; stroke-width: 0px;"/>
  <path d="M83.96,190.74c.43.11.85.21,1.28.32-.71.92-.89-.02-1.25-.35,0,0-.03.03-.03.03Z" style="fill: #fdfdfd; stroke-width: 0px;"/>
</svg>