<?xml version="1.0" encoding="UTF-8"?>
<svg id="Layer_1" data-name="Layer 1" xmlns="http://www.w3.org/2000/svg" viewBox="0 0 941.84 266.29">
  <path d="M-10.48,291.01c0-102.61.02-205.21-.1-307.82,0-3.42.67-4.09,4.09-4.09,316.6.1,633.21.1,949.81,0,3.42,0,4.1.67,4.1,4.09-.12,101.11-.12,202.21,0,303.32,0,3.75-.84,4.59-4.59,4.59-317.77-.1-635.54-.09-953.31-.09Z" style="fill: #fefefe; stroke-width: 0px;"/>
  <path d="M759.4,239.14c-14.76,10.72-30.15,15.8-47.17,14.91-16.61-.87-28.97-9.63-38.59-22.58-21.94-29.53-20.31-72.62,4.17-99.96,12.37-13.82,27.52-21.09,46.95-18.72,11.81,1.44,22.67,4.55,32.97,10.97,1.13-1.88.68-3.71.68-5.41,0-22.81.04-45.63-.17-68.44-.04-4.2,1.14-4.89,5.2-4.38,9.87,1.23,19.82,1.8,29.73,2.61,4.47.37,8.94.81,13.41.97,2.62.09,2.93,1.52,2.92,3.57-.04,4.16.02,8.33.02,12.49,0,60.45-.01,120.89-.02,181.34q0,6.49-6.42,6.5c-12.99,0-25.99-.13-38.98.09-3.76.06-5.12-1.06-4.75-4.79.27-2.75.05-5.54.05-9.17Z" style="fill: #9bd3ca; stroke-width: 0px;"/>
  <path d="M260.41,130.8c6.85-6.15,12.86-10.75,20.01-13.69,16.5-6.77,33.13-7.86,49.2.42,12.57,6.47,19.7,17.81,23.88,31.16,3.12,9.95,3.98,20.14,3.99,30.46.01,14.99-.25,29.98.19,44.95.24,8.14.56,16.27.67,24.41.04,2.94-.64,3.86-3.94,3.78-13.15-.29-26.32-.33-39.47,0-3.82.1-4.67-.74-4.64-4.47.19-22.14.11-44.29.11-66.44,0-13.84-7.48-22.25-21.38-24.1-11.57-1.54-24.11,6.82-27.15,18.24-.46,1.73-.39,3.63-.36,5.45.28,21.96.51,43.92,1,65.87.09,4.08-.91,5.52-5.19,5.31-13.12-.63-26.28.5-39.4-.92-2.43-.26-3.69-.84-3.78-3.39-.06-1.82-.52-3.62-.53-5.43-.12-19.98.33-39.98-.39-59.94-1.23-33.78-.03-67.57-1.07-101.33-.41-13.3-.25-26.6-.71-39.89-.11-3.1.79-4.95,3.88-5.97,14.19-4.7,28.36-9.47,42.46-14.4,3.5-1.22,4.83-.75,4.77,3.22-.48,27.45-.56,54.91-1.39,82.34-.23,7.6-.37,15.18-.76,24.34Z" style="fill: #9bd3ca; stroke-width: 0px;"/>
  <path d="M466.04,240.75c-15.76,11.33-32.54,14.93-50.41,11.37-17.37-3.46-30.12-14.02-39.56-28.79-11.2-17.55-13.52-36.92-9.27-56.59,5.93-27.46,27.56-49.28,58.14-51.88,13.5-1.15,25.74.89,36.67,9.09,2.33,1.74,3.16.61,2.8-1.55-1-6.08,2.18-6.63,7.13-6.46,10.15.34,20.32.25,30.48.02,3.9-.09,5.45.73,5.61,5.11.9,24.57,2.13,49.12,3.03,73.69.57,15.6,1.74,31.18,1.86,46.81,0,.17,0,.33,0,.5q.53,10.06-9.89,10.09c-9.99.02-20-.24-29.98.11-4.83.17-7.33-.85-6.41-6.2.24-1.4-.1-2.9-.21-5.32Z" style="fill: #9cd3ca; stroke-width: 0px;"/>
  <path d="M520.37,183.86c0-21.14.1-42.28-.09-63.42-.04-4.12,1.11-5.44,5.29-5.37,11.99.21,23.98.19,35.97-.16,4.23-.12,5.33,1.5,4.9,5.2-.1.82.03,1.67-.04,2.49-.31,3.64.17,4.73,4.17,2.59,13.77-7.37,28.35-11.96,44.22-12.15,21.02-.26,35.97,12.43,39.56,33.22,2.59,15.03,1.23,30.24.77,45.31-.56,18.27-.64,36.52-.67,54.78,0,4.41-.92,6.06-5.73,5.92-12.48-.36-24.98-.25-37.47-.03-3.74.06-5.04-1.06-4.77-4.81,1.23-17.27.73-34.57.83-51.86.04-8.3-.44-16.56-2.82-24.63-2.26-7.65-8.3-13.26-15.95-13.66-7.91-.42-16.08,3.53-19.17,10.87-1.75,4.16-2.9,8.45-2.89,13.03.06,21.14.05,42.28.1,63.42.02,7.56.06,7.56-7.67,7.56-10.99,0-21.99-.18-32.97.1-4.28.11-5.7-.92-5.65-5.48.26-20.97.11-41.95.11-62.92h-.02Z" style="fill: #9bd3ca; stroke-width: 0px;"/>
  <path d="M868.48,199.09c-16.77.93-31.21-5.24-42.17-17.97-15.24-17.71-11.21-42.18,8.3-56.11,22.02-15.72,45.54-16.45,70.08-7.22,8.77,3.3,16.71,8.07,24.08,13.86,2.22,1.74,3.06,2.87,1.26,5.6-4.91,7.48-9.59,15.13-14.11,22.86-2.08,3.56-4.38,1.41-6.31.47-7.48-3.64-14.92-7.37-23.17-8.89-7.87-1.45-15.76-2.29-23.36,1.47-2.36,1.17-4.63,2.67-4.5,5.42.15,3.09,2.89,4.1,5.51,4.99,5.49,1.87,11.16,1.46,16.8,1.52,9.73.09,19.1,1.87,28.12,5.65,19.51,8.17,27.78,27.16,20.51,47.04-6.7,18.32-20.9,28.6-38.49,33.92-24.56,7.43-48,3.16-69.54-10.68-10.72-6.89-10.77-8.71-2.31-18.1,4.78-5.31,9.66-10.54,14.23-16.03,2.75-3.3,4.93-4.15,8.89-1.31,9.99,7.19,21.29,9.81,33.49,7.37,3.55-.71,7.14-1.74,9.42-5.06,2.36-3.44,1.39-6.42-2.54-7.72-4.54-1.5-9.22-.96-14.19-1.06Z" style="fill: #9bd3ca; stroke-width: 0px;"/>
  <path d="M106.45,41.21c-2.59-1.78-5.08-3.75-7.8-5.32-8.13-4.69-9.43-12.28-9.04-20.63.11-2.48,1.32-3.16,3.66-2.14,22.54,9.86,45.87,17.66,68.83,26.43,5.92,2.26,9.79,7.01,12.12,12.64,7.52,18.09,15.83,35.85,22.58,54.27,4.16,11.36,3.19,22.37-.2,33.62-4.34,14.4-12.49,27.1-17.83,41.06-5.18,13.53-10.13,27.02-11.13,41.65-.34,5.05-1.62,5.5-6.15,2.76-6.31-3.8-10.38-9.75-14.5-15.54-9.62-13.53-17.28-28.04-19.82-44.66-1.62-10.56-1.34-21.29-.08-31.84,1.6-13.44,1.9-26.43-5.08-38.69-2.94-5.16-4.04-10.85-3.55-16.83.64-7.63,5.17-10.06,11.49-5.9,9.78,6.45,14.92,16.18,18.58,26.9,3.72,10.89,6.35,21.98,6.14,33.59-.02.82.18,1.65.37,2.45.18.77.48,1.52.96,3.02,4.5-22.6,3.86-43.92-5.18-64.64-2.08-4.78-5.34-8.42-9.21-11.54-2.96-2.38-5.5-3.25-10.02-.7-10.44,5.87-21.89,4.99-33.33,1.58-10.91-3.25-16.78-10.61-19.73-21.03-1.26-4.43-.35-5.63,4.12-4.27,6.21,1.9,12.51,3.29,18.87,4.51.98.19,1.98.2,2.98.29,5.39-.12,8.8,4.06,13.16,6.17,2.63,1.28,5.17,2.88,7.68,4.45-6.31-3.84-12.9-7.24-18.86-11.65Z" style="fill: #9bd3ca; stroke-width: 0px;"/>
  <path d="M37.4,122.02c-3.77,10.23.21,19.07,4.98,27.78,9.07,16.55,22.01,29.3,39.15,39.56-5.35-7.35-11.32-12.8-15.72-19.5-8.02-12.22-14.94-24.81-14.31-40.05.17-4.21-.37-9.51,4.65-11.13,5.12-1.66,8.5,2.29,11.67,5.85,3.31,3.72,4.93,8.28,6.58,12.78,3.62,9.87,10.13,17.39,18.22,23.84,9.73,7.76,19.88,15.05,27.66,25,9.53,12.19,14.59,26.29,18.33,41.06,2.34,9.24,4.41,18.41,2.01,27.96-.36,1.45-.25,3.12-2.03,3.64-1.78.52-2.69-.96-3.75-1.96-9.99-9.47-22.52-14.49-34.81-19.97-16.07-7.17-33.68-10.13-49.34-18.51-10.18-5.45-17.16-13.55-21.74-23.77-7.4-16.52-14.2-33.31-21.66-49.8-3.35-7.4-3.22-14.48-.17-21.66,6.48-15.27,13.18-30.46,19.67-45.73,2.53-5.96,5.06-11.95,7.02-18.1,1.37-4.27,3.1-3.75,5.77-1.49,6.52,5.52,9.32,12.34,7.53,20.85-.31,1.45-.44,2.94-.65,4.41-1.46,13.33-4.22,26.36-9.06,38.91Z" style="fill: #9bd3ca; stroke-width: 0px;"/>
  <path d="M457.33,89.14c-7.83,0-15.66-.19-23.48.09-3.48.13-4.82-1.2-5-4.38-.05-.83-.27-1.65-.27-2.47.05-23.58-1.37-47.12-2.23-70.67-.16-4.46,1.14-5.62,5.55-5.53,15.32.29,30.64.23,45.96.07,3.94-.04,5.83.92,5.65,5.28-.15,3.78.43,7.61.86,11.4.37,3.22-.74,4.41-4.11,4.33-9.16-.2-18.32.08-27.47-.15-3.63-.09-4.44,1.26-4.44,4.62,0,3.44,1.04,4.7,4.56,4.59,7.15-.22,14.32.08,21.48-.13,2.96-.09,4.11.99,4.54,3.81.78,5.14.38,10.29.56,15.44.1,2.76-1.93,2.62-3.8,2.62-6.83,0-13.67.25-20.48-.09-4.16-.2-4.92,1.45-4.97,5.19-.06,4.04,1.36,5.09,5.2,4.97,8.65-.25,17.32.02,25.98-.13,2.97-.05,4.23.84,4.11,3.94-.17,4.49-.15,8.99.03,13.48.11,2.83-.94,3.79-3.75,3.74-8.16-.13-16.32-.05-24.48-.04Z" style="fill: #9cd2ca; stroke-width: 0px;"/>
  <path d="M360.48,61.3c.76,13.53-11.6,24.71-23.87,27.62-12.99,3.09-24.98-.09-35.72-8-5.4-3.97-5.5-4.84-.99-9.57,2.53-2.65,5.3-5.11,7.54-7.98,1.92-2.46,3.26-2.57,5.56-.47,4.66,4.26,10.38,5.8,16.6,5.25,1.78-.16,3.59-.73,5.23-1.45,1.42-.63,2.27-2.06,2.2-3.64-.07-1.49-1.31-2.22-2.57-2.77-2.83-1.23-5.83-1.09-8.82-1.14-11.41-.18-22.04-7.99-25.64-18.79-3.18-9.53,0-19.4,8.02-26.34,14.3-12.38,36.82-8.05,48.81,1.86,2.99,2.47,3,4.74.74,7.58-2.27,2.86-4.68,5.68-6.46,8.84-1.96,3.46-3.73,4.04-6.87,1.39-4.74-3.99-10.28-6.02-16.58-5.44-1.3.12-2.67.3-3.84.83-2.12.97-4.56,2.23-4,4.99.49,2.42,3.03,2.69,5.19,3.09,7.14,1.32,14.55.35,21.52,3.42,9.39,4.14,14,10.54,13.95,20.72Z" style="fill: #9bd3ca; stroke-width: 0px;"/>
  <path d="M647.41,88.76c-2.44.36-2.25-1.8-2.63-2.97-1.21-3.79-2.36-7.62-3.12-11.52-.49-2.54-1.67-3.19-4.05-3.15-6.83.12-13.66.15-20.48,0-2.64-.06-3.88,1.01-4.68,3.4-1.2,3.61-2.8,7.09-3.99,10.71-.72,2.2-1.62,3.04-3.96,2.03-5.33-2.3-10.72-4.43-16.09-6.64-1.92-.79-2.71-1.42-1.45-3.96,10.52-21.22,20.85-42.54,31.04-63.93,1.67-3.51,3.66-5.1,7.62-4.7,3.46.35,7.03.4,10.47-.03,4.67-.58,6.77,1.26,8.17,5.67,6.98,21.98,14.19,43.9,21.51,65.77,1.24,3.7,1.01,5.26-3.36,5.82-5.06.65-10,2.27-15,3.48Z" style="fill: #9bd3ca; stroke-width: 0px;"/>
  <path d="M484.32,47.5c-1.23-22.16,17.5-41.12,40.26-41.05,15.87.05,29.13,7.91,35.2,24.39.96,2.6.76,4.02-2.33,4.51-2.27.36-4.59.98-6.65,1.97-5.48,2.64-9.35,2.5-13.32-3.36-4.86-7.18-12.9-6.87-20.4-4.67-6.7,1.97-9.87,7.34-11.23,13.97-2.89,14.15,6.75,25.94,20.49,24.91,6.55-.49,11.06-4.46,14.47-9.5,1.39-2.06,2.31-2.21,4.24-1.46,2.78,1.07,5.65,1.92,8.43,2.99,6.51,2.48,6.8,2.65,3.72,9.11-5.32,11.16-14.79,17.12-26.56,19.83-25.42,5.84-48.44-18.57-46.33-41.63Z" style="fill: #9cd3ca; stroke-width: 0px;"/>
  <path d="M362.43,53.95c0-11.95.13-23.9-.08-35.84-.06-3.31.88-5.1,4.02-6.35,12.15-4.82,24.45-8.02,37.18-2.63,15.14,6.41,23.23,17.11,20.8,34.34-1.93,13.7-15.7,24.65-30.72,24.79-8.17.08-8.15.08-8.14,8.19,0,4.1,1.48,9.57-.58,11.93-2.22,2.54-7.83.66-11.96.72-8.54.12-8.61.05-8.57-8.29.04-8.97-1.64-17.88-1.95-26.87Z" style="fill: #9cd3ca; stroke-width: 0px;"/>
  <path d="M669.42,48.16c0-12.15.12-24.3-.07-36.45-.05-3.54,1.12-4.69,4.58-4.48,3.98.25,8,.27,11.98,0,4.13-.29,5.51,1.22,5.46,5.39-.19,16.48.1,32.96-.18,49.43-.08,4.96,1.65,6.36,6.34,6.1,6.31-.34,12.65.02,18.98-.14,2.82-.07,3.89.92,3.81,3.73-.14,4.66-.14,9.32,0,13.98.07,2.62-.97,3.47-3.52,3.46-14.65-.07-29.31-.1-43.96.02-3.2.03-3.41-1.65-3.4-4.09.05-12.32.02-24.64.02-36.95h-.02Z" style="fill: #9dd2c9; stroke-width: 0px;"/>
  <path d="M563.49,48.15c0-11.82.1-23.64-.06-35.46-.04-3.32.71-4.91,4.4-4.66,4.14.28,8.34.26,12.48,0,3.46-.21,4.21,1.3,4.13,4.4-.57,21.95.62,43.92-.72,65.87-.66,10.82-.44,10.84-11.02,10.84q-9.39,0-9.4-9.52c0-10.49,0-20.98,0-31.47.06,0,.13,0,.19,0Z" style="fill: #9cd3ca; stroke-width: 0px;"/>
  <path d="M47.44,87.02c4.27-7.1,8.64-14.15,12.76-21.34,1.33-2.32,2.51-2.68,3.84-.41,4.79,8.15,8.49,16.46,4.57,26.24-5.09,12.69-12.74,22.84-26.07,27.73-2.4.76-4.24.36-3.51-2.62,2.31-9.44,4.54-18.89,6.96-28.3.16-.64.86-.97,1.44-1.3Z" style="fill: #9cd2ca; stroke-width: 0px;"/>
  <path d="M47.44,87.02c-2.58,9.64-5.16,19.27-7.74,28.91-.66,2.47.62,3.3,2.84,3.31-1.51,1.31-3.95.89-5.14,2.78,1.83-8.21,3.37-16.5,5.59-24.61,1.29-4.74.97-9.87,3.48-14.3.25,1.32-.46,2.88.97,3.91Z" style="fill: #c7f1ec; stroke-width: 0px;"/>
  <path d="M106.45,41.21c7.32,3.14,13.63,7.94,20.29,12.23-8.13-2.33-14.39-8.4-22.27-11.21.66-.34,1.32-.68,1.98-1.02Z" style="fill: #c7f2ec; stroke-width: 0px;"/>
  <path d="M758.5,182.06c1.41,14.83-15.07,28.36-27.05,28.39-11.4.03-26.74-11.62-26.91-27.59-.14-13.36,12.7-26.95,26.54-27.14,14.67-.21,28.98,14.34,27.42,26.35Z" style="fill: #fefefe; stroke-width: 0px;"/>
  <path d="M462.43,182.69c-.11,14.65-12.6,28.29-25.94,28.33-13.1.04-26.08-13.87-26-27.7.08-14.22,14.96-27.13,28.88-26.38,13.81.75,23.17,10.61,23.06,25.75Z" style="fill: #fefefe; stroke-width: 0px;"/>
  <path d="M629.78,32.39c2.84,4.95,3.27,10.05,4.54,14.88.46,1.74-.46,2.57-2.37,2.86-8.54,1.27-9.52.19-6.44-7.8,1.23-3.2,2.7-6.3,4.27-9.94Z" style="fill: #f4fbfb; stroke-width: 0px;"/>
  <path d="M391.39,25.07c5.4-.61,8.37,2.97,10.68,6.8,2.72,4.52,1.44,8.99-1.89,12.82-3.2,3.69-7.47,4.65-12.15,4.33-2.14-.15-2.6-1.76-2.93-3.44-1.14-5.75-.78-11.6-.44-17.34.23-3.82,4.08-2.92,6.73-3.17Z" style="fill: #fbfcfd; stroke-width: 0px;"/>
</svg>