<?xml version="1.0" encoding="UTF-8"?><svg id="Layer_1" xmlns="http://www.w3.org/2000/svg" viewBox="0 0 1052.08 286.65"><path d="M855.84,264.44c-2.2,1.43-4.05,2.66-5.94,3.85-14.72,9.29-30.71,13.83-48.16,12.75-12.24-.76-23.01-5.27-32.05-13.48-17.06-15.48-26.16-34.98-28.16-57.76-2.04-23.21,3.69-44.4,17.88-63.02,9.42-12.35,21.12-21.67,36.68-25.17,12.72-2.86,25.16-.85,37.47,2.51,6.53,1.78,12.74,4.4,18.54,7.9,1.86,1.12,2.53.73,2.58-1.27.04-1.58,0-3.15,0-4.73-.05-25.36-.09-50.73-.13-76.09,0-.66-.02-1.33.04-1.99.26-2.57,1.3-3.63,3.89-3.46,4.31.28,8.61.84,12.92,1.18,12.36.97,24.72,1.92,37.08,2.81,3.49.25,4.43,1.07,4.53,4.52.02.58,0,1.16,0,1.75,0,71.69,0,143.37,0,215.06,0,8.5-1.69,10.14-10.28,10.15-13.07.02-26.14.08-39.21.12-1.08,0-2.17.03-3.25-.06-3.54-.28-4.77-1.65-4.51-5.15.24-3.32.22-6.64.07-10.42ZM793.59,200.09c-.95,16.19,16.17,30.92,28.94,31.68,15.38.92,32.64-15.33,33.24-31.24.63-16.61-16.67-30.84-30.48-31.38-16.57-.64-32.63,16.14-31.7,30.94Z" fill="#fff" stroke-width="0"/><path d="M290.09,140.69c3.36-2.68,6.43-5.52,9.86-7.81,19.53-13,40.42-17.64,63.04-9.17,17.31,6.48,26.82,20,32.32,36.92,3.72,11.44,4.92,23.23,4.81,35.15-.25,26.12.15,52.22.97,78.33.13,4.09-.76,5-4.91,4.94-14.82-.23-29.64-.25-44.46,0-4.5.08-5.36-.85-5.36-5.4,0-25.03-.03-50.07.02-75.1.02-10.11-3.13-18.64-12.51-23.54-10.18-5.31-20.47-5.34-30.32,1.13-5.74,3.78-9.88,8.84-11.76,15.57-.69,2.45-.5,4.95-.47,7.44.35,24.2.72,48.39,1.08,72.59.01.91.03,1.83-.04,2.74-.24,2.98-1.38,4.16-4.33,4.45-.99.09-1.99.01-2.99,0-11.16-.12-22.31-.19-33.47-.4-3.57-.07-7.13-.48-10.7-.79-2.23-.19-3.38-1.38-3.59-3.69-.29-3.15-.66-6.28-.66-9.45-.02-19.29.37-38.6-.24-57.88-1.06-33.18-.78-66.36-.98-99.54-.13-21.62-.71-43.24-1.09-64.86-.01-.75-.05-1.5-.03-2.24.13-4.86,1-6.04,5.58-7.58,9.93-3.33,19.87-6.63,29.79-9.98,5.75-1.94,11.47-3.97,17.22-5.92,4.27-1.45,5.61-.54,5.55,3.87-.37,27.94-.56,55.88-1.33,83.82-.33,12.05-.64,24.1-.97,36.39Z" fill="#fff" stroke-width="0"/><path d="M523.17,266.21c-2.53,1.58-4.66,2.98-6.85,4.27-24.72,14.57-55.64,13.32-77.19-3.99-19.14-15.36-29.66-35.65-30.77-60.3-.88-19.75,3.61-38.21,15.7-54.24,14.13-18.74,33.29-28.03,56.6-29.1,13.72-.63,26.47,2.24,37.65,10.62.66.49,1.41,1.14,2.26.7,1.02-.52.64-1.6.63-2.48,0-.58-.12-1.16-.16-1.74-.2-3.38,1.25-5.18,4.65-5.52,1.73-.17,3.49-.13,5.24-.08,10.91.31,21.81.07,32.72,0,5.39-.04,6.55.93,6.8,6.23.66,13.79,1.2,27.58,1.77,41.37.75,18.03,1.43,36.06,2.24,54.08.62,13.71,1.38,27.41,1.59,41.13.12,8.1-3.25,11.69-11.35,11.78-9.08.11-18.15.02-27.23.03-3,0-6,.15-8.99.05-4.08-.13-5.48-1.78-5.33-5.8.08-2.21.02-4.42.02-7.02ZM519.32,199.44c.38-8.68-3.5-17.94-10.17-23.07-6.88-5.29-14.67-6.75-22.98-5.25-9.2,1.67-16.15,7.06-21.46,14.52-3.92,5.51-5.75,11.87-4.79,18.56,1.38,9.54,6.31,17.21,14.09,22.89,8.5,6.2,17.84,7.68,27.16,2.47,11.61-6.49,17.92-16.6,18.14-30.12Z" fill="#fff" stroke-width="0"/><path d="M584.61,201.03c0-23.78,0-47.57,0-71.35,0-5.15,1.2-6.35,6.33-6.32,13.57.07,27.14.14,40.71-.13,4.54-.09,5.58,1.04,5.54,5.58-.02,1.75-.05,3.49-.08,5.24-.03,1.76.93,2.23,2.43,1.71,1.09-.38,2.13-.93,3.16-1.47,14.63-7.67,30.07-12.28,46.68-13.23,25.15-1.45,44.39,14.25,47.81,39.24,1.77,12.93,1.55,25.86,1,38.83-.99,23.68-1.19,47.38-1.09,71.08,0,1.49-.04,3-.25,4.47-.44,3.01-1.75,4.23-4.8,4.34-2.66.1-5.33.02-7.99-.06-10.91-.33-21.81-.03-32.72.11-1.42.02-2.83.05-4.25-.03-3.63-.18-5.04-1.62-4.78-5.2.64-8.8.89-17.6.88-26.42-.02-13.97.05-27.94-.14-41.91-.09-6.32-1.09-12.59-2.97-18.66-2.35-7.56-6.92-13.26-14.93-14.94-8.41-1.76-16.02.5-21.68,7.1-4.72,5.52-6.22,12.44-6.24,19.56-.07,23.45.02,46.9.04,70.36,0,1.91-.04,3.83-.1,5.74-.1,2.96-.86,3.81-3.84,4.13-1.57.16-3.16.17-4.74.18-12.32.04-24.64.08-36.96.1-5.98.01-7.01-1.03-7.01-6.93,0-23.7,0-47.4,0-71.1h-.01Z" fill="#fff" stroke-width="0"/><path d="M980.52,218.77c-9.62.58-18.94-.69-27.81-4.61-9.51-4.21-17.32-10.59-23.39-18.95-13.39-18.46-9.94-42.9,8.4-57.77,21.68-17.58,46.2-21.62,72.88-14.36,13.68,3.72,26.05,10.01,37.19,18.74,3.59,2.82,3.82,3.91,1.36,7.66-5.25,7.99-10.17,16.19-15.08,24.4-2.01,3.36-3.19,3.6-6.71,1.85-8.86-4.42-17.69-8.92-27.59-10.67-6.17-1.09-12.34-1.9-18.6-.78-3.49.62-6.72,1.89-9.71,3.77-1.72,1.08-2.91,2.55-2.83,4.68.09,2.25,1.5,3.57,3.43,4.5,5.83,2.79,12.1,2.89,18.34,2.8,12.05-.16,23.75,1.54,34.89,6.24,14.52,6.13,24.2,16.38,26.4,32.41,1.66,12.08-2.11,23.02-8.48,33.14-5.68,9.02-13.48,15.84-22.97,20.57-21.02,10.46-42.94,13.1-65.73,6.79-11.74-3.25-22.45-8.69-32.37-15.72-.2-.14-.41-.29-.61-.44-5.73-4.33-6.3-7.34-1.66-12.84,6.87-8.13,13.99-16.05,21.13-23.95,2.71-3.01,5.24-3.02,9.1-.29,5.78,4.09,12.03,7.1,19.01,8.44,7.39,1.42,14.75,1.11,22.01-.86,3.3-.9,6.14-2.53,7.89-5.66,1.89-3.38.95-6.17-2.66-7.61-3.32-1.32-6.85-1.29-10.33-1.45-1.83-.08-3.66-.01-5.5-.01Z" fill="#fff" stroke-width="0"/><path d="M138.11,53.77c-7.42-5.42-14.85-10.44-23.03-14.46-5.93-2.91-12.05-6.2-15.85-12.11-3.37-5.24-3.51-11.16-3.19-17.11.14-2.67,1.54-3.33,4.42-2.16,6.55,2.67,13.01,5.54,19.62,8.05,18.96,7.18,37.96,14.29,56.99,21.28,6.84,2.51,11.69,7.02,14.49,13.58,8.75,20.56,17.99,40.91,25.91,61.82,5.16,13.6,4.01,27.06-.3,40.55-3.66,11.45-9.45,21.97-14.42,32.84-7.47,16.36-13.93,33.08-17,50.9-.56,3.27-.76,6.6-1.18,9.9-.51,4.01-1.87,4.7-5.5,2.78-5.73-3.03-10.01-7.63-13.82-12.75-8.57-11.51-16.28-23.49-21.5-36.96-6.02-15.55-7.17-31.66-6-48.08.6-8.37,2-16.67,1.76-25.11-.25-9.12-2.11-17.79-6.6-25.81-3.74-6.68-5.19-13.8-3.94-21.39,1.11-6.72,5.67-9.01,11.6-5.63,7.84,4.47,13.48,11.13,17.34,19.14,7.44,15.45,11.95,31.69,12.09,48.96.02,2.02.25,3.97,1.25,6.11,1.04-2.32,1.11-4.6,1.45-6.79,3.44-22.31,1.89-44.07-7.29-64.98-2.55-5.8-6.63-10.32-11.7-13.99-3.17-2.3-6.42-1.81-9.62,0-6.63,3.74-13.79,5.32-21.35,5-6.61-.28-13.05-1.6-19.26-3.86-11.58-4.21-17.67-13.06-20.42-24.58-.87-3.65.61-4.83,4.54-3.67,6.63,1.95,13.31,3.76,20.13,4.78,7.46,1.12,13.27,5.46,19.54,8.98,2.79,1.57,5.59,3.15,8.65,4.17.71.24,1.46.4,2.18.6Z" fill="#fff" stroke-width="0"/><path d="M85.39,205.92c-3.03-4.19-6.61-7.85-9.84-11.79-9.48-11.55-17.24-24.05-21.2-38.61-1.92-7.08-2.11-14.3-1.26-21.54.74-6.33,7.18-9.07,12.58-5.36,3.75,2.58,6.63,6.04,8.94,9.95,1.23,2.08,2.25,4.27,2.99,6.57,4.31,13.42,12.86,23.64,23.94,32.04,5.5,4.17,10.81,8.59,16.1,13.03,11.49,9.64,20.17,21.4,25.89,35.26,5.83,14.11,10.17,28.64,11.67,43.91.48,4.94-.32,9.79-1.47,14.57-.65,2.7-2.99,3.6-4.85,1.75-11.3-11.28-25.72-17.22-39.92-23.57-12.41-5.55-25.55-9-38.33-13.48-6.6-2.31-13.09-4.91-19.24-8.26-11.49-6.26-19.45-15.69-24.63-27.57-7.93-18.2-15.68-36.48-23.82-54.58-4.48-9.97-3.51-19.34.8-29.07,8.54-19.28,16.63-38.77,24.98-58.14,1.58-3.66,2.73-7.45,4.1-11.18,1.38-3.77,2.92-4.28,6.06-1.76,7.35,5.92,10.8,13.38,9.41,23.02-.56,3.9-2.64,7.22-3.27,10.99-1.83,10.9-4.9,21.52-7.04,32.35-.81,4.09-1.59,8.2-2.33,12.31-1.26,7,.81,13.49,3.77,19.76,9.88,20.93,25.1,37.02,44.62,49.22.27.17.6.27.9.38.05.02.14-.05.46-.19Z" fill="#fff" stroke-width="0"/><path d="M479.66,47.02c-.56-13.46-1.1-26.91-1.68-40.37C477.76,1.47,479.09,0,484.21,0c17.48,0,34.97.03,52.45.06,5.13,0,6.52,1.42,6.46,6.55-.05,4.09.4,8.13.95,12.17.51,3.77-.75,5.27-4.58,5.28-10.57.01-21.15-.02-31.72-.01-3.56,0-4.5,1.06-4.5,4.95,0,3.81,1.05,5.01,4.51,5.02,8.16.01,16.32-.02,24.48-.01,3.99,0,5.09.85,5.65,4.72.84,5.78.52,11.62.61,17.43.03,2.23-1.5,2.86-3.55,2.85-8.16-.05-16.32-.03-24.48-.02-3.95,0-5.1,1.26-5.15,5.56-.05,4.22,1.14,5.57,5.17,5.57,9.82,0,19.65-.1,29.47-.14,4.47-.02,5.39.96,5.38,5.41-.02,4.49-.01,8.98.03,13.47.04,4.61-.71,5.43-5.26,5.43-10.41,0-20.81-.05-31.22-.03-7.24.01-14.48.09-21.73.17-4.48.05-6.17-1.31-6.35-5.75-.28-6.89-.42-13.79-.5-20.69-.08-6.98-.02-13.96-.02-20.94-.21,0-.42,0-.63,0Z" fill="#fff" stroke-width="0"/><path d="M364.96,95.32c-12.22-.2-22.95-4.97-32.37-12.98-2.18-1.86-2.39-3.43-.5-5.59,3.95-4.49,8.08-8.82,12.18-13.18,1.2-1.27,2.62-1.34,4.03-.27.73.55,1.43,1.14,2.15,1.7,6.9,5.31,14.47,6.72,22.79,3.92,2.03-.68,3.37-1.94,3.38-4.11.01-2.13-1.72-2.82-3.39-3.5-2.7-1.09-5.55-.97-8.37-1.02-9.99-.17-18.29-4.02-24.7-11.63-10.61-12.61-8.78-29.95,4.18-40.25,10.94-8.69,23.33-9.7,36.41-6.56,6.29,1.51,12.08,4.22,17.27,8.12,4.83,3.62,5.16,6.09,1.41,10.75-2.45,3.05-4.87,6.1-6.87,9.47-2.16,3.63-4.21,4.01-7.5,1.3-4.09-3.36-8.6-5.67-13.9-6.24-3.86-.41-7.65-.22-11.12,1.82-1.68.98-2.98,2.18-2.67,4.35.3,2.1,1.87,2.74,3.66,3.18,5.45,1.34,11.07,1.21,16.6,1.86,2.73.32,5.43.8,8.03,1.71,12.65,4.47,18.42,13.09,17.79,26.74-.43,9.23-5.24,16.1-12.18,21.68-7.57,6.1-16.41,8.55-26.33,8.72Z" fill="#fff" stroke-width="0"/><path d="M543.87,47.58c-.75-14.58,4.55-26.65,15.52-36.2,16.03-13.95,41.08-14.96,57.01-2.32,6.5,5.16,10.78,11.89,13.43,19.68.87,2.56.21,3.79-2.47,4.36-3.6.77-7,2.01-10.41,3.36-4.8,1.9-8.23.87-11.54-3.09-.21-.25-.45-.5-.62-.78-4-6.44-9.97-8.28-17.19-7.59-12.22,1.17-18.7,8.07-19.74,21.26-.87,11.03,6.08,20.95,16.53,23.37,8.95,2.07,16.22-.74,21.86-7.92.67-.85,1.29-1.74,1.9-2.63,1.09-1.58,2.53-2.09,4.34-1.43,4.45,1.62,8.93,3.18,13.33,4.92,3.12,1.24,3.59,2.55,2.37,5.69-5.51,14.12-16.21,21.97-30.58,25.69-25.93,6.71-50.61-14.6-53.7-38.91-.31-2.45-.04-4.98-.04-7.47Z" fill="#fff" stroke-width="0"/><path d="M750.57,85.54c.12,2.38-.86,3.51-2.49,3.8-6.47,1.14-12.83,2.74-19.17,4.45-1.56.42-2.41-.67-2.79-2.16-1.23-4.74-2.95-9.35-3.81-14.19-.46-2.59-1.89-3.64-4.49-3.62-7.74.06-15.48.07-23.22,0-2.74-.03-4.33,1.21-5.23,3.71-1.46,4.06-2.99,8.1-4.52,12.14-1.14,3.02-2.07,3.44-5.12,2.2-5.7-2.31-11.38-4.66-17.06-7.02-3.5-1.46-3.76-2.2-2.08-5.65,9.57-19.65,19.16-39.29,28.73-58.94,2.04-4.18,4.1-8.36,6-12.6,1.86-4.16,4.81-6.21,9.46-5.6,3.82.5,7.64.23,11.46,0,5.4-.34,7.44,1.04,9.2,6.35,2.77,8.35,5.37,16.76,8.12,25.12,5.28,16.1,10.62,32.18,15.92,48.27.47,1.42.84,2.86,1.1,3.75ZM708.8,29.26c-2.65,5.68-5.18,10.92-6.58,16.56-.86,3.48.46,5.24,3.73,5.03,1.85-.12,3.79-.09,5.62-.58,2.88-.78,3.2-1.37,2.61-4.33-.21-1.04-.33-2.11-.56-3.14-1.04-4.52-1.94-9.1-4.81-13.53Z" fill="#fff" stroke-width="0"/><path d="M476.4,35.91c.52,21.59-18.2,33.96-33.36,34.44-7.97.25-12.24,2.86-10.92,12.72.3,2.21.29,4.48.23,6.72-.09,3.2-1.54,5-4.71,4.97-5.64-.05-11.29-.47-16.92-.93-2.1-.17-2.78-1.92-2.88-3.81-1.22-23.15-3.24-46.27-2.44-69.49.09-2.57-.07-5.15-.03-7.73.05-3.16,1.57-5.31,4.55-6.48,7.22-2.84,14.54-5.39,22.33-5.99,15.07-1.17,27.62,4.19,37.52,15.42,5.05,5.73,6.8,12.83,6.63,20.17ZM430.3,32.99c.08,4.35-.32,8.72.97,13.01.51,1.7,1.43,2.78,3.13,2.95,6.21.64,11.52-1.17,15.36-6.24,1.9-2.51,3.47-5.52,2.9-8.64-1.25-6.77-6.44-14.36-16.45-13.03-4.31.57-6.14,1.16-5.91,6.23.09,1.9.01,3.82,0,5.72Z" fill="#fff" stroke-width="0"/><path d="M753.61,47.73c0-13.55-.02-27.11.01-40.66.01-5.02,1.28-6.22,6.28-5.95,4,.21,7.98.2,11.98,0,5.49-.28,7.08,1.23,7.06,6.72-.06,17.63-.17,35.26-.26,52.89,0,.91-.02,1.83-.01,2.74.05,5.34,1.58,6.78,6.92,6.7,7.08-.1,14.15-.17,21.23-.2,3.91-.02,4.88.99,4.88,4.86,0,5.07.02,10.15,0,15.22-.01,3.12-.58,3.77-3.66,4.18-.82.11-1.66.08-2.49.08-15.32.01-30.64.01-45.96.02-5.2,0-5.83-.6-5.84-5.92-.02-13.56,0-27.11,0-40.67-.04,0-.09,0-.13,0Z" fill="#fff" stroke-width="0"/><path d="M657.58,48.43c-.08,11.45.01,25.51-1.3,39.52-.44,4.73-1.71,5.89-6.45,6.12-2.9.14-5.82.39-8.72-.14-4.08-.74-6.7-3.29-7.41-7.38-.2-1.14-.34-2.31-.34-3.47-.03-11.23-.27-22.47.05-33.69.39-13.47.11-26.94.18-40.4,0-1.08-.02-2.17.07-3.24.2-2.5,1.31-3.65,3.8-3.68,5.49-.06,10.99-.02,16.48-.01,2.21,0,3.44,1.22,3.61,3.34.15,1.98.05,3.98.05,5.98,0,11.48,0,22.96,0,37.04Z" fill="#fff" stroke-width="0"/><path d="M74.2,87.72c-.07,1.53-.05,3.37-.61,5.13-4.97,15.51-13.44,28.08-29.03,34.76-1.16.5-2.19.52-3.28.1-1.41-.54-1.96-1.28-1.47-3.03,2.76-9.91,5.54-19.83,7.89-29.84.85-3.6,2.46-6.63,4.31-9.68,3.53-5.82,6.97-11.7,10.49-17.53,1.97-3.26,3.16-3.27,5.04-.03,3.57,6.15,6.71,12.45,6.66,20.11Z" fill="#fff" stroke-width="0"/></svg>