<?xml version="1.0" encoding="UTF-8"?>
<svg id="Layer_1" data-name="Layer 1" xmlns="http://www.w3.org/2000/svg" viewBox="0 0 449.9 24.62">
  <path d="M1.65,21.11c-.52.06-1.05.11-1.57.17,0-1.67,0-3.33,0-5,.33,0,.67,0,1,0,1.91.61,3.79,1.23,2.75,3.91-.54.73-1.39.74-2.17.92Z" style="fill: #f7f7f7; stroke-width: 0px;"/>
  <path d="M8.07,13.29c-1.67.66-3.34,1.33-5.01,1.99,1.27-1.66,3.07-2,5.01-1.99Z" style="fill: #f7f7f7; stroke-width: 0px;"/>
  <path d="M7.13,19.46c-.66-.15-1.32-.3-1.97-.45,1.65-.94,3.37-1.27,5.21-.57-.15.26-.31.51-.48.75-.84.92-1.79.62-2.75.26Z" style="fill: #f7f7f7; stroke-width: 0px;"/>
  <path d="M.72,25.58c-.4-.32-.64-.8-.64-1.31,0-62.02.03-124.03-.08-186.05,0-3.17.3-4.22,3.96-4.22,147.35.13,294.7.13,442.06,0,3.64,0,3.98,1.02,3.97,4.21-.11,56.4-.08,112.8-.08,169.2,0,.38-.13.77-.38,1.06-2.02,2.35-4.53,3.3-7.84,3.65-6.35.67-12.21,3.17-17.41,7-.18.13-.38.23-.6.28-4.05.91-7.59-1.34-11.36-2.07-6.92-1.34-13.42-.42-19.73,2.48-.11.05-.23.09-.34.12-3.76.82-7.24.23-11-.94-6.2-1.93-12.68-3.1-19.06-4.42-4.52-.94-9.48,4.69-12.2,1.02-4.43-5.97-6.86-3.1-13.75-.34-3.07,1.23-8.95,1.3-12.41,1.01-.38.05,1.34-3.97.97-3.9-2.48,9.63-9.45,4.41-9.69,4.9.08,1-11.36-.29-13.75.34-.31.08-9.68-.65-9.98-.75-6.22-2.08,16.74-5.97,10.79-3.63-3.55,1.39-6.87,3.19-10.79,3.63-2.64.29-4.93,1.73-7.1,3.39-5.27,4.02-10.27,6.84-17.89,4.38-10.02-3.24-20.72-4.37-30.91.52-2.37,1.13-4.48.68-6.68-.31-5.34-2.41-10.78-4.37-16.81-3.9-1.13.09-2.4-.19-3.39-.71-8.16-4.33-17-3.55-25.75-3.67-2.49-.04-3.82.83-4.54,2.95-.05.13-.1.27-.18.39-.38.56-.94.91-1.52,1.23-.11.06-.23.11-.35.15-1.22.36-2.49.49-3.72.81-1.12.28-2.25.47-3.4.29-.28-.04-.55-.18-.76-.36-1.44-1.23-2.62-2.58-5.15-1.95-2.89.71-5.93-.56-8.57-1.79-5.29-2.45-10.92-3.36-16.48-4.74-2.93-.73-5.1.72-7.02,1.78-7.04,3.9-14.35,4.39-21.95,2.86-5.5-1.11-10.41-.64-14.92,3.22-4.45,3.8-9.62,1.42-14.38.62-6.16-1.03-12.33-2.27-18.21-4.55-.79-.33-1.62-.5-2.45-.66-.2-.04-.39-.12-.56-.22-2.3-1.42-4.58-.95-6.75.37-4.43,2.7-9.1,3.52-14.23,2.62-3.6-.63-7.19-.03-10.58,1.45-4.41,1.27-9.15.13-13.48,1.89-1.62.26-3.05,1.17-4.68,1.38-1.73.39-3.32,1.29-5.11,1.52-.78-.05-1.56.31-2.35.19-.22-.04-.43-.15-.61-.29-.05-.04-.1-.07-.14-.11Z" style="fill: orange; stroke-width: 0px;"/>
</svg>